<svg width="128" height="36" viewBox="0 0 128 36" fill="none" xmlns="http://www.w3.org/2000/svg">
<path d="M20.3341 35.9257C19.6713 35.945 19.0263 35.7098 18.5311 35.2683C18.036 34.8269 17.7282 34.2126 17.6709 33.5514L17.3712 31.2C14.5168 30.3857 12.8469 28.2714 12.4131 24.9143L9.84407 5.10285C9.29299 5.01408 8.73518 4.97393 8.17708 4.98285C7.35101 4.97608 6.52791 5.08279 5.73082 5.29999V35.3457H0.68988V11.1943C0.68988 7.91713 2.15992 5.60285 4.83738 4.63999V3.08285C4.83738 1.28285 5.93063 0.0742754 7.55481 0.0742754C9.17899 0.0742754 10.198 1.0857 10.4606 2.93142L10.6604 4.37428C13.5919 5.19428 15.3046 7.55142 15.8127 11.3771L18.1876 30.4743C19.6065 30.7486 21.0647 30.7486 22.4835 30.4743L24.8584 11.38C25.3551 7.55142 27.0877 5.19428 30.0107 4.3657L30.2105 2.92285C30.4731 1.0857 31.5064 0.0657043 33.1163 0.0657043C34.7262 0.0657043 35.8337 1.27428 35.8337 3.07428V4.63142C38.5112 5.59428 39.9812 7.90856 39.9812 11.1857V35.3371H34.9346V5.29713C34.1375 5.07993 33.3144 4.97322 32.4883 4.97999C31.9302 4.97107 31.3724 5.01122 30.8213 5.09999L28.2523 24.9143C27.827 28.2114 26.1172 30.3771 23.2942 31.2L23.0116 33.5543C22.9675 34.2229 22.6615 34.8471 22.1601 35.2912C21.6588 35.7353 21.0026 35.9633 20.3341 35.9257ZM18.3046 31.4286L18.5644 33.4543C18.5916 33.8985 18.7927 34.314 19.124 34.6109C19.4552 34.9077 19.89 35.0619 20.3341 35.04C20.5551 35.0559 20.7769 35.0272 20.9866 34.9557C21.1963 34.8842 21.3895 34.7713 21.5548 34.6237C21.7201 34.4761 21.8541 34.2968 21.9489 34.0964C22.0437 33.896 22.0974 33.6787 22.1067 33.4571L22.3665 31.4286C21.0215 31.6495 19.6496 31.6495 18.3046 31.4286ZM35.8337 34.46H39.0821V11.1943C39.0821 8.41713 37.9631 6.49999 35.8337 5.6057V34.46ZM1.58047 34.46H4.83738V5.6057C2.71083 6.49999 1.6033 8.41713 1.6033 11.1943L1.58047 34.46ZM10.7889 5.34856L13.3065 24.7971C13.6662 27.6114 14.9935 29.4314 17.2485 30.2257L14.9221 11.4886C14.4939 8.1857 13.1381 6.16856 10.7889 5.34856ZM29.8822 5.34856C27.533 6.16856 26.1715 8.18571 25.749 11.4914L23.4226 30.2143C25.6805 29.42 27.005 27.6 27.3646 24.7857L29.8822 5.34856ZM5.73653 4.35428C6.53723 4.15939 7.35877 4.06343 8.18279 4.06856C8.69809 4.06312 9.21314 4.09367 9.72418 4.15999L9.57005 3.03713C9.37309 1.65999 8.69373 0.962847 7.55481 0.962847C6.41589 0.962847 5.73653 1.77142 5.73653 3.07142V4.35428ZM32.4883 4.06856C33.3123 4.06343 34.1339 4.15939 34.9346 4.35428V3.08285C34.9346 1.78285 34.2381 0.974276 33.1163 0.974276C31.9945 0.974276 31.298 1.67142 31.1011 3.04856L30.9469 4.17142C31.458 4.10509 31.973 4.07454 32.4883 4.07999V4.06856Z" fill="#2D2D2D"/>
<path d="M53.8965 35.3457H48.944V0.654266H53.8965V35.3457ZM49.8432 34.4457H52.9973V1.55427H49.8432V34.4457Z" fill="#2D2D2D"/>
<path d="M86.026 35.9257C83.8766 35.9257 83.3857 33.9629 83.2258 33.3171L82.8547 31.6714C79.6378 31.1 77.6739 29.0229 76.8604 25.34L72.1991 5.07714C71.666 5.01031 71.1293 4.97786 70.592 4.97999C69.6999 4.96552 68.8107 5.08593 67.9545 5.33714V35.3371H62.9079V11.0514C62.9079 7.90857 64.3351 5.72285 67.0554 4.7V3.08285C67.0554 1.28285 68.1458 0.0742798 69.77 0.0742798C71.1715 0.0742798 72.2019 0.965708 72.5274 2.45714L72.9413 4.28571C76.0811 4.85714 77.9651 6.87428 78.8414 10.6143L83.594 30.88C84.129 30.9467 84.6677 30.9792 85.2068 30.9771C86.0953 30.984 86.9809 30.8755 87.8414 30.6543V0.654281H92.8881V25.7143C92.8881 28.2857 91.3838 30.3029 88.7406 31.2943V32.8571C88.7406 34.7543 87.7016 35.9257 86.026 35.9257ZM83.811 31.8143L84.0964 33.1086C84.4361 34.4686 84.9956 35.0257 86.0232 35.0257C87.1649 35.0257 87.8386 34.24 87.8386 32.8686V31.5771C86.9745 31.775 86.0903 31.8709 85.2039 31.8629C84.7387 31.8639 84.2738 31.8411 83.811 31.7943V31.8086V31.8143ZM63.807 34.4457H67.0554V5.66571C64.8974 6.6 63.807 8.40857 63.807 11.0486V34.4457ZM73.161 5.24571L77.7281 25.14C78.436 28.3257 80.0117 30.1114 82.6264 30.7086L77.9679 10.8143C77.2086 7.58285 75.7158 5.83714 73.161 5.24571ZM88.7406 1.55428V30.3371C90.8414 29.4457 91.9889 27.8257 91.9889 25.7257V1.55428H88.7406ZM67.9545 4.38857C68.8158 4.1663 69.7026 4.05871 70.592 4.06857C71.0572 4.06747 71.5222 4.09036 71.985 4.13714V4.12285L71.6482 2.64C71.5112 2.01142 71.0773 0.962851 69.77 0.962851C68.4626 0.962851 67.9545 2.05142 67.9545 3.07142V4.38857Z" fill="#2D2D2D"/>
<path d="M127.542 35.3457H122.261L119.658 25.0143H105.02L102.465 35.3457H97.184L103.995 10.2543C104.783 7.38857 106.584 5.42857 109.216 4.57143L109.687 2.6C109.972 1.51428 110.543 0.0828552 112.344 0.0828552C114.146 0.0828552 114.719 1.51143 114.999 2.59143L115.464 4.57143C118.09 5.42857 119.892 7.39714 120.682 10.26L127.542 35.3457ZM122.96 34.4457H126.363L119.815 10.4914C119.167 8.14 117.762 6.47143 115.73 5.63428L119.777 21.6371H104.963L108.959 5.62C106.924 6.47714 105.519 8.13714 104.872 10.4771L98.3686 34.4457H101.772L104.326 24.1143H120.348L122.96 34.4457ZM106.119 20.7314H118.616L114.722 5.27428C113.162 4.87712 111.527 4.87712 109.967 5.27428L106.119 20.7314ZM110.215 4.26285V4.29714C111.621 4.00856 113.071 4.00856 114.477 4.29714V4.26L114.128 2.79428C113.789 1.48285 113.289 0.968569 112.347 0.968569C111.405 0.968569 110.906 1.48286 110.563 2.80286L110.215 4.26V4.26285Z" fill="#2D2D2D"/>
</svg>
