<svg width="71" height="20" viewBox="0 0 71 20" fill="none" xmlns="http://www.w3.org/2000/svg">
<mask id="mask0_22_7" style="mask-type:luminance" maskUnits="userSpaceOnUse" x="0" y="0" width="71" height="20">
<path d="M0 0H70.4083V20H0V0Z" fill="white"/>
</mask>
<g mask="url(#mask0_22_7)">
<path d="M10.9453 19.9587C10.5771 19.9694 10.2188 19.8388 9.94367 19.5935C9.66861 19.3483 9.49761 19.007 9.46578 18.6397L9.29928 17.3333C7.7135 16.8809 6.78578 15.7063 6.54478 13.8413L5.11754 2.83491C4.81138 2.7856 4.50149 2.76329 4.19143 2.76825C3.7325 2.76449 3.27522 2.82377 2.8324 2.94444V19.6365H0.0318756V6.21905C0.0318756 4.3984 0.848563 3.11269 2.33604 2.57777V1.71269C2.33604 0.712691 2.9434 0.0412607 3.84572 0.0412607C4.74805 0.0412607 5.31417 0.603163 5.46007 1.62856L5.57106 2.43015C7.19967 2.88571 8.15117 4.19523 8.43345 6.32061L9.75284 16.9302C10.5411 17.0826 11.3512 17.0826 12.1394 16.9302L13.4588 6.32222C13.7348 4.19523 14.6973 2.88571 16.3212 2.42539L16.4322 1.6238C16.5781 0.603163 17.1522 0.036499 18.0466 0.036499C18.9409 0.036499 19.5562 0.70793 19.5562 1.70793V2.57301C21.0437 3.10793 21.8604 4.39364 21.8604 6.21427V19.6317H19.0567V2.94285C18.6139 2.82218 18.1566 2.7629 17.6977 2.76666C17.3876 2.7617 17.0777 2.78401 16.7716 2.83332L15.3443 13.8413C15.1081 15.673 14.1582 16.8762 12.5898 17.3333L12.4328 18.6413C12.4083 19.0127 12.2383 19.3595 11.9598 19.6062C11.6813 19.8529 11.3167 19.9796 10.9453 19.9587ZM9.81784 17.4603L9.96217 18.5857C9.97728 18.8325 10.089 19.0633 10.2731 19.2283C10.4571 19.3932 10.6986 19.4788 10.9453 19.4667C11.0681 19.4755 11.1913 19.4596 11.3078 19.4198C11.4243 19.3801 11.5317 19.3174 11.6235 19.2354C11.7153 19.1534 11.7898 19.0538 11.8424 18.9424C11.8951 18.8311 11.9249 18.7104 11.9301 18.5873L12.0744 17.4603C11.3272 17.5831 10.5651 17.5831 9.81784 17.4603ZM19.5562 19.1444H21.3609V6.21905C21.3609 4.67618 20.7392 3.6111 19.5562 3.11427V19.1444ZM0.526645 19.1444H2.33604V3.11427C1.15462 3.6111 0.539332 4.67618 0.539332 6.21905L0.526645 19.1444ZM5.64245 2.97142L7.04111 13.7762C7.24095 15.3397 7.97833 16.3508 9.23111 16.7921L7.93867 6.38255C7.70078 4.54761 6.94756 3.42697 5.64245 2.97142ZM16.2498 2.97142C14.9447 3.42697 14.1883 4.54761 13.9536 6.38411L12.6612 16.7857C13.9156 16.3444 14.6514 15.3333 14.8512 13.7698L16.2498 2.97142ZM2.83557 2.41904C3.2804 2.31077 3.73681 2.25746 4.1946 2.26031C4.48088 2.25729 4.76702 2.27426 5.05093 2.3111L4.9653 1.68729C4.85588 0.922213 4.47846 0.534912 3.84572 0.534912C3.21299 0.534912 2.83557 0.984119 2.83557 1.70634V2.41904ZM17.6977 2.26031C18.1554 2.25746 18.6119 2.31077 19.0567 2.41904V1.71269C19.0567 0.990469 18.6698 0.541261 18.0466 0.541261C17.4233 0.541261 17.0364 0.928563 16.927 1.69364L16.8413 2.31745C17.1253 2.2806 17.4114 2.26363 17.6977 2.26666V2.26031Z" fill="#2D2D2D"/>
<path d="M29.5911 19.6365H26.8397V0.363525H29.5911V19.6365ZM27.3393 19.1365H29.0916V0.863528H27.3393V19.1365Z" fill="#2D2D2D"/>
<path d="M47.4408 19.9587C46.2467 19.9587 45.974 18.8683 45.8852 18.5095L45.679 17.5952C43.8918 17.2778 42.8008 16.1238 42.3488 14.0778L39.7592 2.82063C39.4631 2.7835 39.1649 2.76547 38.8664 2.76665C38.3708 2.75862 37.8768 2.82551 37.4011 2.96507V19.6317H34.5974V6.13966C34.5974 4.39364 35.3903 3.17935 36.9016 2.6111V1.71269C36.9016 0.712688 37.5074 0.0412598 38.4097 0.0412598C39.1883 0.0412598 39.7608 0.536498 39.9416 1.36507L40.1716 2.38094C41.9159 2.6984 42.9626 3.81904 43.4494 5.89683L46.0897 17.1555C46.3869 17.1926 46.6862 17.2107 46.9857 17.2095C47.4793 17.2133 47.9713 17.153 48.4494 17.0302V0.363483H51.2531V14.2857C51.2531 15.7143 50.4174 16.8349 48.9489 17.3857V18.2539C48.9489 19.3079 48.3717 19.9587 47.4408 19.9587ZM46.2103 17.6746L46.3688 18.3937C46.5576 19.1492 46.8684 19.4587 47.4393 19.4587C48.0736 19.4587 48.4478 19.0222 48.4478 18.2603V17.5428C47.9678 17.6528 47.4766 17.706 46.9841 17.7016C46.7257 17.7022 46.4674 17.6895 46.2103 17.6635V17.6714V17.6746ZM35.0969 19.1365H36.9016V3.14761C35.7027 3.66666 35.0969 4.67142 35.0969 6.1381V19.1365ZM40.2936 2.91428L42.8309 13.9667C43.2242 15.7365 44.0996 16.7285 45.5522 17.0603L42.9641 6.00794C42.5423 4.21269 41.7129 3.24285 40.2936 2.91428ZM48.9489 0.863482V16.8539C50.1161 16.3587 50.7536 15.4587 50.7536 14.292V0.863482H48.9489ZM37.4011 2.43809C37.8796 2.3146 38.3723 2.25483 38.8664 2.26031C39.1248 2.2597 39.3832 2.27242 39.6403 2.2984V2.29047L39.4532 1.46666C39.3771 1.11745 39.136 0.53491 38.4097 0.53491C37.6834 0.53491 37.4011 1.13967 37.4011 1.70634V2.43809Z" fill="#2D2D2D"/>
<path d="M70.505 19.6365H67.5711L66.125 13.8968H57.9928L56.5733 19.6365H53.6397L57.4233 5.69682C57.8611 4.10475 58.8617 3.01586 60.3239 2.53967L60.5856 1.44443C60.7439 0.841257 61.0611 0.0460205 62.0617 0.0460205C63.0628 0.0460205 63.3811 0.839673 63.5367 1.43967L63.795 2.53967C65.2539 3.01586 66.255 4.10951 66.6939 5.69999L70.505 19.6365ZM67.9595 19.1365H69.85L66.2122 5.82855C65.8522 4.52221 65.0717 3.59523 63.9428 3.13015L66.1911 12.0206H57.9611L60.1811 3.12221C59.0506 3.5984 58.27 4.52062 57.9106 5.8206L54.2978 19.1365H56.1883L57.6072 13.3968H66.5083L67.9595 19.1365ZM58.6033 11.5174H65.5461L63.3828 2.93015C62.5161 2.7095 61.6078 2.7095 60.7411 2.93015L58.6033 11.5174ZM60.8789 2.36824V2.38729C61.66 2.22697 62.4656 2.22697 63.2467 2.38729V2.36666L63.0528 1.55237C62.8645 0.823795 62.5867 0.538084 62.0633 0.538084C61.54 0.538084 61.2628 0.823801 61.0722 1.55713L60.8789 2.36666V2.36824Z" fill="#2D2D2D"/>
</g>
</svg>
