<svg width="10" height="11" viewBox="0 0 10 11" fill="none" xmlns="http://www.w3.org/2000/svg">
<path d="M9.65 8.18085V1.28723C9.65 1.17127 9.60393 1.06006 9.52194 0.978063C9.43994 0.896065 9.32873 0.85 9.21277 0.85H2.31915C2.20319 0.85 2.09198 0.896066 2.00998 0.978063C1.92798 1.06006 1.88191 1.17127 1.88191 1.28723C1.88191 1.4032 1.92798 1.51441 2.00998 1.59641C2.09198 1.6784 2.20319 1.72447 2.31915 1.72447H8.77553V8.18085C8.77553 8.29681 8.8216 8.40803 8.90359 8.49002L9.00966 8.38396L8.9036 8.49002C8.98559 8.57202 9.0968 8.61809 9.21277 8.61809C9.32873 8.61809 9.43994 8.57202 9.52194 8.49002C9.60393 8.40803 9.65 8.29681 9.65 8.18085ZM8.11809 9.71277V2.81915C8.11809 2.70319 8.07202 2.59198 7.99002 2.50998C7.90803 2.42798 7.79681 2.38191 7.68085 2.38191H0.787234C0.671272 2.38191 0.56006 2.42798 0.478063 2.50998C0.396066 2.59198 0.35 2.70319 0.35 2.81915V9.71277C0.35 9.82873 0.396065 9.93994 0.478063 10.0219C0.560061 10.1039 0.671273 10.15 0.787234 10.15H7.68085C7.79681 10.15 7.90803 10.1039 7.99002 10.0219C8.07202 9.93994 8.11809 9.82873 8.11809 9.71277ZM1.22447 9.27553V3.25638H7.24362V9.27553H1.22447Z" fill="#594AF1" stroke="#594AF1" stroke-width="0.3"/>
</svg>
