<svg width="8" height="8" viewBox="0 0 8 8" fill="none" xmlns="http://www.w3.org/2000/svg">
<path d="M4.76837e-07 0.255319V6.38298C4.76837e-07 6.45069 0.0268998 6.51564 0.0747814 6.56352C0.122663 6.6114 0.187604 6.6383 0.25532 6.6383C0.323034 6.6383 0.387976 6.6114 0.435857 6.56352C0.483739 6.51564 0.510639 6.45069 0.510639 6.38298V0.510638H6.38298C6.45069 0.510638 6.51563 0.483739 6.56352 0.435857C6.6114 0.387975 6.6383 0.323034 6.6383 0.255319C6.6383 0.187604 6.6114 0.122663 6.56352 0.0747812C6.51563 0.0268996 6.45069 0 6.38298 0H0.25532C0.187604 0 0.122663 0.0268996 0.0747814 0.0747812C0.0268998 0.122663 4.76837e-07 0.187604 4.76837e-07 0.255319ZM1.3617 1.61702V7.74468C1.3617 7.8124 1.3886 7.87734 1.43648 7.92522C1.48436 7.9731 1.54931 8 1.61702 8H7.74468C7.8124 8 7.87734 7.9731 7.92522 7.92522C7.9731 7.87734 8 7.8124 8 7.74468V1.61702C8 1.54931 7.9731 1.48437 7.92522 1.43648C7.87734 1.3886 7.8124 1.3617 7.74468 1.3617H1.61702C1.54931 1.3617 1.48436 1.3886 1.43648 1.43648C1.3886 1.48437 1.3617 1.54931 1.3617 1.61702ZM1.87234 1.87234H7.48936V7.48936H1.87234V1.87234Z" fill="#535A61"/>
</svg>
