<svg width="6" height="10" viewBox="0 0 6 10" fill="none" xmlns="http://www.w3.org/2000/svg">
<path d="M1.451 0.197889L5.85621 4.63061C5.9085 4.68338 5.94545 4.74055 5.96706 4.80211C5.98902 4.86368 6 4.92964 6 5C6 5.07036 5.98902 5.13632 5.96706 5.19789C5.94545 5.25945 5.9085 5.31662 5.85621 5.36939L1.451 9.8153C1.329 9.93843 1.17649 10 0.993487 10C0.810481 10 0.653619 9.93404 0.522901 9.80211C0.392182 9.67018 0.326823 9.51627 0.326823 9.34037C0.326823 9.16447 0.392182 9.01055 0.522901 8.87863L4.36602 5L0.522901 1.12137C0.400897 0.99824 0.339895 0.846614 0.339895 0.666491C0.339895 0.486016 0.405254 0.329815 0.535973 0.197889C0.666691 0.0659628 0.819196 0 0.993487 0C1.16778 0 1.32028 0.0659628 1.451 0.197889Z" fill="#D9D9D9"/>
</svg>
