<svg width="6" height="10" viewBox="0 0 6 10" fill="none" xmlns="http://www.w3.org/2000/svg">
<path d="M4.59103 9.80211L0.145119 5.36939C0.0923481 5.31662 0.055057 5.25945 0.0332452 5.19789C0.0110816 5.13632 0 5.07036 0 5C0 4.92964 0.0110816 4.86368 0.0332452 4.80211C0.055057 4.74055 0.0923481 4.68338 0.145119 4.63061L4.59103 0.184697C4.71416 0.0615655 4.86807 0 5.05277 0C5.23747 0 5.39578 0.0659631 5.5277 0.197889C5.65963 0.329815 5.72559 0.483729 5.72559 0.659631C5.72559 0.835532 5.65963 0.989446 5.5277 1.12137L1.64908 5L5.5277 8.87863C5.65083 9.00176 5.7124 9.15339 5.7124 9.33351C5.7124 9.51398 5.64644 9.67019 5.51451 9.80211C5.38259 9.93404 5.22867 10 5.05277 10C4.87687 10 4.72295 9.93404 4.59103 9.80211Z" fill="black"/>
</svg>
