<svg width="4" height="17" viewBox="0 0 4 17" fill="none" xmlns="http://www.w3.org/2000/svg">
<path d="M2 4C3.10457 4 4 3.10457 4 2C4 0.895431 3.10457 1.35705e-07 2 8.74228e-08C0.895431 3.91405e-08 -3.91405e-08 0.895431 -8.74228e-08 2C-1.35705e-07 3.10457 0.89543 4 2 4Z" fill="#24272A"/>
<path d="M2 10.4C3.10457 10.4 4 9.50453 4 8.39996C4 7.29539 3.10457 6.39996 2 6.39996C0.895431 6.39996 -3.91405e-08 7.29539 -8.74228e-08 8.39996C-1.35705e-07 9.50453 0.89543 10.4 2 10.4Z" fill="#24272A"/>
<path d="M2 16.8C3.10457 16.8 4 15.9046 4 14.8C4 13.6955 3.10457 12.8 2 12.8C0.895431 12.8 -3.91405e-08 13.6955 -8.74228e-08 14.8C-1.35705e-07 15.9046 0.89543 16.8 2 16.8Z" fill="#24272A"/>
</svg>
