<svg width="14" height="4" viewBox="0 0 14 4" fill="none" xmlns="http://www.w3.org/2000/svg">
<path d="M3.33333 1.66659C3.33333 0.746111 2.58714 -8.14261e-05 1.66667 -8.14663e-05C0.746192 -8.15065e-05 1.13088e-07 0.746111 7.28523e-08 1.66659C3.26171e-08 2.58706 0.746192 3.33325 1.66667 3.33325C2.58714 3.33325 3.33333 2.58706 3.33333 1.66659Z" fill="white"/>
<path d="M8.66665 1.66659C8.66665 0.746111 7.92045 -8.14261e-05 6.99998 -8.14663e-05C6.07951 -8.15065e-05 5.33331 0.746111 5.33331 1.66659C5.33331 2.58706 6.07951 3.33325 6.99998 3.33325C7.92045 3.33325 8.66665 2.58706 8.66665 1.66659Z" fill="white"/>
<path d="M14 1.66659C14 0.746111 13.2538 -8.14261e-05 12.3334 -8.14663e-05C11.4129 -8.15065e-05 10.6667 0.746111 10.6667 1.66659C10.6667 2.58706 11.4129 3.33325 12.3334 3.33325C13.2538 3.33325 14 2.58706 14 1.66659Z" fill="white"/>
</svg>
