<svg width="8" height="4" viewBox="0 0 8 4" fill="none" xmlns="http://www.w3.org/2000/svg">
<path d="M1.22597 0.1774L4.00373 2.53446L6.78149 0.1774C6.84777 0.121157 6.92646 0.0765434 7.01306 0.0461051C7.09966 0.0156668 7.19248 5.92613e-10 7.28621 0C7.37995 -5.92612e-10 7.47277 0.0156668 7.55937 0.0461051C7.64597 0.0765434 7.72466 0.121157 7.79094 0.1774C7.85722 0.233643 7.9098 0.300412 7.94567 0.373897C7.98154 0.447381 8 0.526142 8 0.605681C8 0.68522 7.98154 0.76398 7.94567 0.837465C7.9098 0.910949 7.85722 0.977719 7.79094 1.03396L4.50487 3.82234C4.43864 3.87866 4.35997 3.92334 4.27336 3.95382C4.18676 3.98431 4.09391 4 4.00015 4C3.90639 4 3.81355 3.98431 3.72694 3.95382C3.64033 3.92334 3.56166 3.87866 3.49543 3.82234L0.209366 1.03396C0.142998 0.97776 0.0903436 0.911004 0.0544178 0.837514C0.018492 0.764024 0 0.685243 0 0.605681C0 0.526119 0.018492 0.447338 0.0544178 0.373848C0.0903436 0.300357 0.142998 0.233601 0.209366 0.1774C0.488574 -0.0534465 0.946761 -0.0595214 1.22597 0.1774Z" fill="#24272A"/>
</svg>
