<svg width="20" height="18" viewBox="0 0 20 18" fill="none" xmlns="http://www.w3.org/2000/svg">
<path d="M0.962241 17.5396C0.588713 17.5396 0.312627 17.3772 0.133983 17.0524C-0.044661 16.7276 -0.044661 16.4028 0.133983 16.078L9.14738 0.487211C9.32603 0.162404 9.61023 0 10 0C10.3898 0 10.674 0.162404 10.8526 0.487211L19.866 16.078C20.0447 16.4028 20.0447 16.7276 19.866 17.0524C19.6874 17.3772 19.4113 17.5396 19.0378 17.5396H0.962241ZM10 6.82095C9.72391 6.82095 9.49265 6.91417 9.30621 7.10061C9.11912 7.2877 9.02558 7.51929 9.02558 7.79537V10.7186C9.02558 10.9947 9.11912 11.226 9.30621 11.4124C9.49265 11.5995 9.72391 11.6931 10 11.6931C10.2761 11.6931 10.5077 11.5995 10.6948 11.4124C10.8812 11.226 10.9744 10.9947 10.9744 10.7186V7.79537C10.9744 7.51929 10.8812 7.2877 10.6948 7.10061C10.5077 6.91417 10.2761 6.82095 10 6.82095ZM10 14.6163C10.2761 14.6163 10.5077 14.5228 10.6948 14.3357C10.8812 14.1493 10.9744 13.918 10.9744 13.6419C10.9744 13.3658 10.8812 13.1346 10.6948 12.9481C10.5077 12.761 10.2761 12.6675 10 12.6675C9.72391 12.6675 9.49265 12.761 9.30621 12.9481C9.11912 13.1346 9.02558 13.3658 9.02558 13.6419C9.02558 13.918 9.11912 14.1493 9.30621 14.3357C9.49265 14.5228 9.72391 14.6163 10 14.6163ZM2.64312 15.5907H17.3569L10 2.92326L2.64312 15.5907Z" fill="white"/>
</svg>
